<?xml version="1.0" encoding="utf-8"?>
<!-- Generator: Adobe Illustrator 24.1.2, SVG Export Plug-In . SVG Version: 6.00 Build 0)  -->
<svg version="1.1" id="Layer_1" xmlns="http://www.w3.org/2000/svg" xmlns:xlink="http://www.w3.org/1999/xlink" x="0px" y="0px"
	 viewBox="0 0 1250 629.9" style="enable-background:new 0 0 1250 629.9;" xml:space="preserve">
<style type="text/css">
	.st0{fill:url(#SVGID_1_);}
	.st1{fill:url(#SVGID_2_);}
	.st2{fill:url(#SVGID_3_);}
	.st3{fill:url(#SVGID_4_);}
	.st4{fill:#FFFFFF;}
	.st5{fill:url(#SVGID_5_);}
	.st6{fill:url(#SVGID_6_);}
	.st7{fill:url(#SVGID_7_);}
	.st8{fill:url(#SVGID_8_);}
	.st9{fill:url(#SVGID_9_);}
	.st10{fill:url(#SVGID_10_);}
	.st11{fill:url(#SVGID_11_);}
	.st12{fill:url(#SVGID_12_);}
</style>
<g>
	<g>
		<linearGradient id="SVGID_1_" gradientUnits="userSpaceOnUse" x1="595.7035" y1="301.3087" x2="595.8637" y2="301.3087">
			<stop  offset="0" style="stop-color:#9F81FD"/>
			<stop  offset="1" style="stop-color:#6946EB"/>
		</linearGradient>
		<path class="st0" d="M595.7,306.3h0.2v-10.1L595.7,306.3z"/>
		<linearGradient id="SVGID_2_" gradientUnits="userSpaceOnUse" x1="498.477" y1="277.3074" x2="752.0366" y2="277.3074">
			<stop  offset="0" style="stop-color:#9F81FD"/>
			<stop  offset="1" style="stop-color:#6946EB"/>
		</linearGradient>
		<path class="st1" d="M717.7,286.2c-11.4,0-22.8,0-34.2,0c-12.6,0-25.2,0.1-37.8,0.1c-9.9,0-19.8,0-29.7,0
			c0.1-8.7,0.2-17.6-2.8-26.7c-5.7-18.4-20.7-33.2-39.1-38.6c-5.4-1.6-11.1-2.5-16.9-2.5c-7.8,0-15.7,1.6-22.7,4.6
			c-12.4,5.2-22.8,14.6-29.2,26.7c-6.3,11.9-8.3,25.9-5.6,39.2c2.4,11.7,8.4,22.5,16.8,30.4c10.5,10.4,25.1,16.4,40,16.5
			c1,0,2,0,3,0c1.7,0,3.5,0,5.2,0c1.7,0,3.5,0,5.2,0c2.3,0,4.3,0,6.1,0.1h0.2c21.6-0.1,43.7-0.1,64.9-0.1c14.1,0,28.1,0,42.2,0h0.1
			c0.6,0,1.3,0,1.9,0c0.8,0,1.6,0,2.4,0c0.8,0,1.7,0,2.5,0c4.4,0,9.2-0.1,14-1.1c19.9-3.7,37.2-18.7,44.1-38.1l3.7-10.5
			C752,286.2,725.4,286.2,717.7,286.2z M576.2,316.1c-1.9,0-3.9,0-6.3,0c-1.6,0-3.2,0-4.8,0h-0.7c-1.7,0-3.3,0-4.9,0
			c-1,0-1.9,0-2.9,0c-9.8-0.1-19.3-4-26.2-10.8l-0.1-0.1l-0.1-0.1c-5.5-5.2-9.4-12.3-11-20c-1.8-8.9-0.5-18,3.7-25.9
			c4.2-8,11.1-14.3,19.2-17.6l0.2-0.1c4.6-2,9.8-3,14.9-3c3.8,0,7.6,0.6,11.1,1.6l0.2,0c12.1,3.6,21.9,13.3,25.7,25.4l0.1,0.2
			l0.1,0.2c2,5.9,1.9,12.8,1.7,20.1l-0.2,10.2V316C589.3,316,582.8,316.1,576.2,316.1z"/>
		<linearGradient id="SVGID_3_" gradientUnits="userSpaceOnUse" x1="497.8648" y1="209.4437" x2="752.0926" y2="209.4437">
			<stop  offset="0" style="stop-color:#9F81FD"/>
			<stop  offset="1" style="stop-color:#6946EB"/>
		</linearGradient>
		<path class="st2" d="M516.3,183.9c9.6,9.5,23,15.4,36.7,16.4l0.3,0h0.3c9.6,0,17.1,0.9,23.6,2.7l0.1,0
			c15.5,4.1,29.6,13.3,39.8,25.9c7.4,9.1,12.7,19.9,15.2,31.2l0.1,0.6l0,0.1c0.6,2.8,2,4.9,4.3,6.2l1.9,1.1l2.2,0
			c19.2-0.1,38.6-0.1,57.5-0.1c14.2,0,28.4,0,42.6-0.1l11.3,0l-3.9-10.6c-4.2-11.4-11.8-21.4-21.5-28.2c-8.8-6.3-19.2-10-30.3-10.7
			l-0.2,0c-1.6-0.1-3.1-0.1-4.6-0.1c-0.6,0-1.2,0-1.7,0c-16-0.5-31.8-6.2-44.4-16.2c-14.4-11.2-24.6-27.7-28.1-45.2l-1.3-6.4l-6.5,0
			c-9.7,0-19.4,0.1-29,0.1c-3.9,0-7.8,0-11.7,0c-2.6,0-5.1,0-7.7,0c-6.7,0-13.4,0-20.1,0c-6.7,0-13.4,0-20.1,0c-3.9,0-7.9,0-11.8,0
			l-11.3,0l3.9,10.6C504.8,169.9,509.9,177.7,516.3,183.9z"/>
		<linearGradient id="SVGID_4_" gradientUnits="userSpaceOnUse" x1="497.9274" y1="141.5315" x2="751.4492" y2="141.5315">
			<stop  offset="0" style="stop-color:#9F81FD"/>
			<stop  offset="1" style="stop-color:#6946EB"/>
		</linearGradient>
		<path class="st3" d="M749.9,128.2c-3.2-13.8-11.7-26.4-23.4-34.6c-9.4-6.8-21.2-10.6-33.1-10.8l-2.9,0c-11.8,0-23.6,0-35.4,0
			c-11.8,0-23.6,0-35.4,0H617c-10.7,0-21.3,0-32,0.1c-9.3,0-18.7,0-28,0h-0.3c-5.8,0-11.9,1-18.2,2.9l-0.1,0
			c-16.9,5.6-30.7,19.1-36.7,36.1l-3.7,10.5l18.5,0c7.1,0,14.2,0,21.2,0s14.2,0,21.2,0c5,0,10,0,15,0h0.1c8.4-0.1,16.7-0.1,23.7-0.1
			h16.5c6,0,12.8,0,19.8-0.1v2.9c0,2.5,0,5,0,7.5v0.1c0.3,14.5,6.3,28.8,16.4,39.3c10.8,11.5,26.2,18,42.4,18c3.7,0,7.4-0.4,11-1.1
			c16.9-3.1,31.9-14.1,40.3-29.3C751.1,157.5,753.2,142.2,749.9,128.2z M726.7,160.2l-0.1,0.2c-5.5,10-15.4,17.2-26.4,19.3l-0.3,0.1
			c-2.3,0.5-4.7,0.7-7.1,0.7c-10.7,0-20.8-4.3-27.9-11.8l-0.2-0.2c-6.7-6.9-10.6-16.2-10.8-25.7c0-2.3,0-4.8,0-7.1v-32.7h2
			c11.3,0,23.1,0,34.6,0h2.7c7.8,0.2,15.5,2.6,21.7,7l0.2,0.1c7.6,5.3,13.3,13.8,15.4,22.8l0,0.1C732.7,142,731.3,152,726.7,160.2z"
			/>
	</g>
	<g>
		<linearGradient id="SVGID_5_" gradientUnits="userSpaceOnUse" x1="130.4221" y1="480.396" x2="1171.0791" y2="601.4595">
			<stop  offset="0" style="stop-color:#9F81FD"/>
			<stop  offset="1" style="stop-color:#6946EB"/>
		</linearGradient>
		<path class="st5" d="M107.9,532.9l9.6-21.3c10.3,7.5,25.7,12.8,40.4,12.8c16.8,0,23.6-5.6,23.6-13.1c0-22.9-71.1-7.2-71.1-52.6
			c0-20.8,16.8-38.1,51.6-38.1c15.4,0,31.1,3.7,42.5,10.8l-8.7,21.5c-11.4-6.5-23.1-9.6-33.9-9.6c-16.8,0-23.2,6.3-23.2,14
			c0,22.6,71.1,7,71.1,51.9c0,20.5-17,37.9-51.9,37.9C138.3,547.1,118.8,541.3,107.9,532.9z"/>
		<linearGradient id="SVGID_6_" gradientUnits="userSpaceOnUse" x1="123.0419" y1="462.1811" x2="1199.3744" y2="587.3948">
			<stop  offset="0" style="stop-color:#9F81FD"/>
			<stop  offset="1" style="stop-color:#6946EB"/>
		</linearGradient>
		<path class="st6" d="M296.2,497.4l-17,17.7v32h-29.1V420.5h29.1v59.1l56-59.1h32.5l-52.4,56.4l55.5,70.1h-34.2L296.2,497.4z"/>
		<linearGradient id="SVGID_7_" gradientUnits="userSpaceOnUse" x1="124.6002" y1="448.7859" x2="1200.9326" y2="573.9997">
			<stop  offset="0" style="stop-color:#9F81FD"/>
			<stop  offset="1" style="stop-color:#6946EB"/>
		</linearGradient>
		<path class="st7" d="M411,420.5h29.3v126.6H411V420.5z"/>
		<linearGradient id="SVGID_8_" gradientUnits="userSpaceOnUse" x1="108.954" y1="437.0995" x2="1185.2865" y2="562.3132">
			<stop  offset="0" style="stop-color:#9F81FD"/>
			<stop  offset="1" style="stop-color:#6946EB"/>
		</linearGradient>
		<path class="st8" d="M590.1,466.4c0,28.2-21.2,45.7-55,45.7h-25.5v34.9h-29.3V420.5h54.8C569,420.5,590.1,438.1,590.1,466.4z
			 M560.5,466.4c0-13.9-9-22.1-26.9-22.1h-23.9v43.9h23.9C551.4,488.3,560.5,480.2,560.5,466.4z"/>
		<linearGradient id="SVGID_9_" gradientUnits="userSpaceOnUse" x1="103.3585" y1="418.8244" x2="1179.6909" y2="544.0382">
			<stop  offset="0" style="stop-color:#9F81FD"/>
			<stop  offset="1" style="stop-color:#6946EB"/>
		</linearGradient>
		<path class="st9" d="M630.3,420.5h57.5c41.4,0,69.8,24.9,69.8,63.3c0,38.3-28.4,63.3-69.8,63.3h-57.5V420.5z M686.4,523
			c25.1,0,41.6-15,41.6-39.2c0-24.2-16.5-39.2-41.6-39.2h-26.8V523H686.4z"/>
		<linearGradient id="SVGID_10_" gradientUnits="userSpaceOnUse" x1="96.4236" y1="400.5175" x2="1172.7561" y2="525.7313">
			<stop  offset="0" style="stop-color:#9F81FD"/>
			<stop  offset="1" style="stop-color:#6946EB"/>
		</linearGradient>
		<path class="st10" d="M797.7,420.5H827v126.6h-29.3V420.5z"/>
		<linearGradient id="SVGID_11_" gradientUnits="userSpaceOnUse" x1="97.4432" y1="389.2911" x2="1173.7756" y2="514.5049">
			<stop  offset="0" style="stop-color:#9F81FD"/>
			<stop  offset="1" style="stop-color:#6946EB"/>
		</linearGradient>
		<path class="st11" d="M967.2,520h-58.8l-11.2,27.1h-30l56.4-126.6h28.9l56.6,126.6h-30.7L967.2,520z M958,497.7l-20.1-48.5
			l-20.1,48.5H958z"/>
		<linearGradient id="SVGID_12_" gradientUnits="userSpaceOnUse" x1="99.3294" y1="371.5898" x2="1175.6619" y2="496.8036">
			<stop  offset="0" style="stop-color:#9F81FD"/>
			<stop  offset="1" style="stop-color:#6946EB"/>
		</linearGradient>
		<path class="st12" d="M1049.3,420.5h29.3v102.7h63.5v23.9h-92.7V420.5z"/>
	</g>
</g>
</svg>
